<mxfile host="app.diagrams.net" modified="2020-12-22T16:23:16.151Z" agent="5.0 (Windows NT 10.0; Win64; x64) AppleWebKit/537.36 (KHTML, like Gecko) Chrome/87.0.4280.88 Safari/537.36 Edg/87.0.664.66" etag="9MHK4PkaTe3DqUuSixRx" version="14.1.1" type="github">
  <diagram id="Zs9O0NumJo9t5DcQIIbI" name="Page-1">
    <mxGraphModel dx="487" dy="336" grid="1" gridSize="10" guides="1" tooltips="1" connect="1" arrows="1" fold="1" page="1" pageScale="1" pageWidth="850" pageHeight="1100" math="0" shadow="0">
      <root>
        <mxCell id="0" />
        <mxCell id="1" parent="0" />
        <mxCell id="VI87yHqdMAnt53Op-lhL-1" value="view" style="shape=folder;fontStyle=1;spacingTop=10;tabWidth=40;tabHeight=14;tabPosition=left;html=1;" vertex="1" parent="1">
          <mxGeometry x="190" y="710" width="70" height="50" as="geometry" />
        </mxCell>
        <mxCell id="VI87yHqdMAnt53Op-lhL-2" value="controller" style="shape=folder;fontStyle=1;spacingTop=10;tabWidth=40;tabHeight=14;tabPosition=left;html=1;" vertex="1" parent="1">
          <mxGeometry x="260" y="610" width="70" height="50" as="geometry" />
        </mxCell>
        <mxCell id="VI87yHqdMAnt53Op-lhL-3" value="model" style="shape=folder;fontStyle=1;spacingTop=10;tabWidth=40;tabHeight=20;tabPosition=left;html=1;" vertex="1" parent="1">
          <mxGeometry x="340" y="710" width="70" height="50" as="geometry" />
        </mxCell>
        <mxCell id="VI87yHqdMAnt53Op-lhL-4" value="&amp;lt;&amp;lt;import&amp;gt;&amp;gt;" style="endArrow=open;endSize=12;dashed=1;html=1;entryX=0.414;entryY=-0.04;entryDx=0;entryDy=0;entryPerimeter=0;exitX=0;exitY=0;exitDx=0;exitDy=50;exitPerimeter=0;" edge="1" parent="1" source="VI87yHqdMAnt53Op-lhL-2" target="VI87yHqdMAnt53Op-lhL-1">
          <mxGeometry width="160" relative="1" as="geometry">
            <mxPoint x="130" y="680" as="sourcePoint" />
            <mxPoint x="290" y="680" as="targetPoint" />
          </mxGeometry>
        </mxCell>
        <mxCell id="VI87yHqdMAnt53Op-lhL-5" value="&amp;lt;&amp;lt;import&amp;gt;&amp;gt;" style="endArrow=open;endSize=12;dashed=1;html=1;entryX=0;entryY=0;entryDx=0;entryDy=0;entryPerimeter=0;exitX=0.75;exitY=1;exitDx=0;exitDy=0;exitPerimeter=0;" edge="1" parent="1" source="VI87yHqdMAnt53Op-lhL-2" target="VI87yHqdMAnt53Op-lhL-3">
          <mxGeometry width="160" relative="1" as="geometry">
            <mxPoint x="270" y="670" as="sourcePoint" />
            <mxPoint x="228.98000000000002" y="718" as="targetPoint" />
          </mxGeometry>
        </mxCell>
      </root>
    </mxGraphModel>
  </diagram>
</mxfile>
